<?xml version="1.0" encoding="UTF-8"?>
<!DOCTYPE svg PUBLIC "-//W3C//DTD SVG 1.1//EN" "http://www.w3.org/Graphics/SVG/1.1/DTD/svg11.dtd">
<svg xmlns="http://www.w3.org/2000/svg" version="1.1" width="391px" height="372px" style="shape-rendering:geometricPrecision; text-rendering:geometricPrecision; image-rendering:optimizeQuality; fill-rule:evenodd; clip-rule:evenodd" xmlns:xlink="http://www.w3.org/1999/xlink">
<g><path style="opacity:0.99" fill="#915fa7" d="M 387.5,366.5 C 344.5,366.5 301.5,366.5 258.5,366.5C 258.5,359.5 258.5,352.5 258.5,345.5C 268.802,343.925 278.802,341.425 288.5,338C 278.482,315.776 269.148,293.276 260.5,270.5C 260.5,268.833 260.5,267.167 260.5,265.5C 259.5,265.5 258.5,265.5 257.5,265.5C 257.5,265.167 257.5,264.833 257.5,264.5C 254.036,256.382 251.202,248.049 249,239.5C 247.019,237.641 246.019,235.308 246,232.5C 245.292,231.619 244.458,230.953 243.5,230.5C 243.167,230.5 242.833,230.5 242.5,230.5C 244.965,226.981 245.132,223.314 243,219.5C 227.137,179.579 211.471,139.579 196,99.5C 195.623,98.0577 194.79,97.0577 193.5,96.5C 189.795,87.3206 186.461,77.9872 183.5,68.5C 181.494,62.1555 179.327,55.8221 177,49.5C 176.148,48.4293 175.315,47.4293 174.5,46.5C 172.56,39.68 170.227,33.0134 167.5,26.5C 181.892,19.1353 196.559,12.1353 211.5,5.5C 212.478,5.97665 213.311,6.64332 214,7.5C 258.333,117.5 302.667,227.5 347,337.5C 359.374,341.219 371.874,344.552 384.5,347.5C 385.086,347.291 385.586,346.957 386,346.5C 386.205,353.246 386.705,359.913 387.5,366.5 Z"/></g>
<g><path style="opacity:0.995" fill="#4e2768" d="M 167.5,26.5 C 170.227,33.0134 172.56,39.68 174.5,46.5C 176.442,52.4899 178.275,58.4899 180,64.5C 181.55,65.5908 182.717,66.9242 183.5,68.5C 186.461,77.9872 189.795,87.3206 193.5,96.5C 176.493,139.844 159.493,183.177 142.5,226.5C 141.088,228.23 141.422,229.73 143.5,231C 176.669,231.831 209.669,231.664 242.5,230.5C 242.833,230.5 243.167,230.5 243.5,230.5C 245.036,236.66 246.87,242.66 249,248.5C 250.145,250.926 251.478,253.259 253,255.5C 253.498,258.482 253.665,261.482 253.5,264.5C 211.5,264.5 169.5,264.5 127.5,264.5C 118.569,288.954 109.236,313.288 99.5,337.5C 112.467,340.659 125.467,343.659 138.5,346.5C 138.5,353.167 138.5,359.833 138.5,366.5C 94.1667,366.5 49.8333,366.5 5.5,366.5C 5.5,359.833 5.5,353.167 5.5,346.5C 15.5543,344.654 25.5543,342.487 35.5,340C 36.3333,339.167 37.1667,338.333 38,337.5C 80.6671,233.515 123.834,129.848 167.5,26.5 Z"/></g>
<g><path style="opacity:1" fill="#6f4287" d="M 174.5,46.5 C 175.315,47.4293 176.148,48.4293 177,49.5C 179.327,55.8221 181.494,62.1555 183.5,68.5C 182.717,66.9242 181.55,65.5908 180,64.5C 178.275,58.4899 176.442,52.4899 174.5,46.5 Z"/></g>
<g><path style="opacity:0.075" fill="#4d326c" d="M 142.5,226.5 C 142.511,228.017 143.177,229.184 144.5,230C 177.165,230.5 209.832,230.667 242.5,230.5C 209.669,231.664 176.669,231.831 143.5,231C 141.422,229.73 141.088,228.23 142.5,226.5 Z"/></g>
<g><path style="opacity:1" fill="#683c80" d="M 243.5,230.5 C 244.458,230.953 245.292,231.619 246,232.5C 246.019,235.308 247.019,237.641 249,239.5C 251.202,248.049 254.036,256.382 257.5,264.5C 256.167,264.5 254.833,264.5 253.5,264.5C 253.665,261.482 253.498,258.482 253,255.5C 251.478,253.259 250.145,250.926 249,248.5C 246.87,242.66 245.036,236.66 243.5,230.5 Z"/></g>
<g><path style="opacity:0.945" fill="#7784b7" d="M 257.5,265.5 C 258.5,265.5 259.5,265.5 260.5,265.5C 260.5,267.167 260.5,268.833 260.5,270.5C 259.692,268.78 258.692,267.113 257.5,265.5 Z"/></g>
<g><path style="opacity:0.157" fill="#8074b2" d="M 258.5,345.5 C 258.5,352.5 258.5,359.5 258.5,366.5C 257.761,366.631 257.094,366.464 256.5,366C 257.15,359.068 257.817,352.234 258.5,345.5 Z"/></g>
<g><path style="opacity:1" fill="#66457c" d="M 138.5,346.5 C 139.82,349.428 140.486,352.761 140.5,356.5C 140.486,360.239 139.82,363.572 138.5,366.5C 138.5,359.833 138.5,353.167 138.5,346.5 Z"/></g>
<g><path style="opacity:0.255" fill="#cec8de" d="M 387.5,366.5 C 388.5,367.167 389.5,367.833 390.5,368.5C 390.5,369.167 390.5,369.833 390.5,370.5C 389.833,370.5 389.5,370.833 389.5,371.5C 388.5,371.5 387.5,371.5 386.5,371.5C 386.366,369.708 386.699,368.042 387.5,366.5 Z"/></g>
</svg>
