<?xml version="1.0" encoding="UTF-8"?>
<!DOCTYPE svg PUBLIC "-//W3C//DTD SVG 1.1//EN" "http://www.w3.org/Graphics/SVG/1.1/DTD/svg11.dtd">
<svg xmlns="http://www.w3.org/2000/svg" version="1.1" width="385px" height="463px" style="shape-rendering:geometricPrecision; text-rendering:geometricPrecision; image-rendering:optimizeQuality; fill-rule:evenodd; clip-rule:evenodd" xmlns:xlink="http://www.w3.org/1999/xlink">
<g><path style="opacity:0.97" fill="#4d2768" d="M 299.5,113.5 C 299.762,109.1 297.762,106.433 293.5,105.5C 286.14,96.1395 277.806,87.8062 268.5,80.5C 267.445,75.8292 264.445,73.8292 259.5,74.5C 259.5,73.5 259.5,72.5 259.5,71.5C 257.5,71.5 255.5,71.5 253.5,71.5C 251.632,70.7368 249.965,69.7368 248.5,68.5C 248.586,67.5041 248.252,66.6708 247.5,66C 238.107,61.0358 228.107,58.2025 217.5,57.5C 176.088,49.761 138.088,58.5943 103.5,84C 95.5993,90.3993 88.5993,97.566 82.5,105.5C 78.2578,106.417 76.2578,109.083 76.5,113.5C 76.1667,114.167 75.8333,114.833 75.5,115.5C 72.7026,115.967 71.3692,117.633 71.5,120.5C 71.0075,122.819 70.0075,124.819 68.5,126.5C 67.4864,118.483 65.3197,110.816 62,103.5C 59.6041,94.2409 57.4374,84.9076 55.5,75.5C 54.1702,71.7613 52.8368,68.0946 51.5,64.5C 51.1667,64.5 50.8333,64.5 50.5,64.5C 75.3689,36.0441 106.369,17.2107 143.5,8C 214.563,-7.20288 275.397,10.9638 326,62.5C 373.681,119.583 385.681,183.583 362,254.5C 347,291.727 323.333,321.393 291,343.5C 283.5,327.833 276,312.167 268.5,296.5C 311.913,260.388 328.747,214.722 319,159.5C 314.942,143.06 308.442,127.727 299.5,113.5 Z"/></g>
<g><path style="opacity:0.949" fill="#453a74" d="M 217.5,57.5 C 228.107,58.2025 238.107,61.0358 247.5,66C 248.252,66.6708 248.586,67.5041 248.5,68.5C 238.387,63.9308 228.054,60.2642 217.5,57.5 Z"/></g>
<g><path style="opacity:0.989" fill="#915fa7" d="M 50.5,64.5 C 50.8333,64.5 51.1667,64.5 51.5,64.5C 52.2618,72.7077 53.7618,80.7077 56,88.5C 59.9667,101.563 64.1334,114.23 68.5,126.5C 68.0075,128.819 67.0075,130.819 65.5,132.5C 63.1663,134.176 62.1663,136.509 62.5,139.5C 57.8399,153.466 54.8399,167.8 53.5,182.5C 52.1914,184.571 51.5248,187.071 51.5,190C 51.6667,192.5 51.8333,195 52,197.5C 52.4169,198.756 53.2502,199.423 54.5,199.5C 58.4646,242.047 77.7979,275.38 112.5,299.5C 112.335,302.518 112.502,305.518 113,308.5C 114.672,311.768 116.339,315.101 118,318.5C 118.522,324.64 119.522,330.64 121,336.5C 121.667,337.167 122.333,337.833 123,338.5C 123.175,342.211 123.675,345.878 124.5,349.5C 125.182,350.243 125.849,350.909 126.5,351.5C 128.531,355.216 129.531,359.216 129.5,363.5C 68.8359,342.334 29.0026,301.001 10,239.5C -4.67288,182.872 3.99379,130.205 36,81.5C 40.3233,75.3476 45.1567,69.681 50.5,64.5 Z"/></g>
<g><path style="opacity:1" fill="#463a74" d="M 253.5,71.5 C 255.5,71.5 257.5,71.5 259.5,71.5C 259.5,72.5 259.5,73.5 259.5,74.5C 264.445,73.8292 267.445,75.8292 268.5,80.5C 263.326,77.7483 258.326,74.7483 253.5,71.5 Z"/></g>
<g><path style="opacity:1" fill="#714489" d="M 51.5,64.5 C 52.8368,68.0946 54.1702,71.7613 55.5,75.5C 57.4374,84.9076 59.6041,94.2409 62,103.5C 65.3197,110.816 67.4864,118.483 68.5,126.5C 64.1334,114.23 59.9667,101.563 56,88.5C 53.7618,80.7077 52.2618,72.7077 51.5,64.5 Z"/></g>
<g><path style="opacity:0.631" fill="#473671" d="M 82.5,105.5 C 80.4884,108.205 78.4884,110.872 76.5,113.5C 76.2578,109.083 78.2578,106.417 82.5,105.5 Z"/></g>
<g><path style="opacity:0.788" fill="#473470" d="M 293.5,105.5 C 297.762,106.433 299.762,109.1 299.5,113.5C 297.512,110.872 295.512,108.205 293.5,105.5 Z"/></g>
<g><path style="opacity:0.176" fill="#433d76" d="M 75.5,115.5 C 74.396,117.389 73.0627,119.055 71.5,120.5C 71.3692,117.633 72.7026,115.967 75.5,115.5 Z"/></g>
<g><path style="opacity:0.055" fill="#836eae" d="M 65.5,132.5 C 65.2927,135.241 64.2927,137.574 62.5,139.5C 62.1663,136.509 63.1663,134.176 65.5,132.5 Z"/></g>
<g><path style="opacity:1" fill="#876eae" d="M 53.5,182.5 C 52.7437,188.155 53.077,193.822 54.5,199.5C 53.2502,199.423 52.4169,198.756 52,197.5C 51.8333,195 51.6667,192.5 51.5,190C 51.5248,187.071 52.1914,184.571 53.5,182.5 Z"/></g>
<g><path style="opacity:0.975" fill="#4e2768" d="M 349.5,410.5 C 339.277,410.366 329.11,411.033 319,412.5C 307.557,411.048 296.057,410.214 284.5,410C 284.043,409.586 283.709,409.086 283.5,408.5C 272.451,407.537 261.785,405.037 251.5,401C 247.402,398.672 243.069,396.839 238.5,395.5C 236.362,394.256 234.362,392.756 232.5,391C 229.793,390.605 227.127,390.105 224.5,389.5C 222.147,387.14 220.147,384.473 218.5,381.5C 218.116,379.071 217.449,376.737 216.5,374.5C 215.5,374.5 214.5,374.5 213.5,374.5C 182.552,324.244 176.052,270.91 194,214.5C 209.667,221.5 225.333,228.5 241,235.5C 226.028,292.582 240.861,340.416 285.5,379C 304.636,393.988 325.969,404.488 349.5,410.5 Z"/></g>
<g><path style="opacity:0.962" fill="#4e2768" d="M 114.5,300.5 C 127.172,308.25 140.672,314.25 155,318.5C 162.2,336.268 168.7,354.268 174.5,372.5C 159.028,371.209 144.028,368.209 129.5,363.5C 130.634,361.034 130.801,358.367 130,355.5C 128.09,351.002 126.59,346.336 125.5,341.5C 125.665,338.15 125.498,334.817 125,331.5C 124.586,331.043 124.086,330.709 123.5,330.5C 121.286,324.385 120.12,318.052 120,311.5C 119.583,310.244 118.75,309.577 117.5,309.5C 116.042,306.673 115.042,303.673 114.5,300.5 Z"/></g>
<g><path style="opacity:1" fill="#805097" d="M 112.5,299.5 C 113.492,299.328 114.158,299.662 114.5,300.5C 115.042,303.673 116.042,306.673 117.5,309.5C 119.013,320.365 121.346,331.032 124.5,341.5C 125.167,344.833 125.833,348.167 126.5,351.5C 125.849,350.909 125.182,350.243 124.5,349.5C 123.675,345.878 123.175,342.211 123,338.5C 122.333,337.833 121.667,337.167 121,336.5C 119.522,330.64 118.522,324.64 118,318.5C 116.339,315.101 114.672,311.768 113,308.5C 112.502,305.518 112.335,302.518 112.5,299.5 Z"/></g>
<g><path style="opacity:1" fill="#5d3376" d="M 117.5,309.5 C 118.75,309.577 119.583,310.244 120,311.5C 120.12,318.052 121.286,324.385 123.5,330.5C 124.086,330.709 124.586,331.043 125,331.5C 125.498,334.817 125.665,338.15 125.5,341.5C 125.167,341.5 124.833,341.5 124.5,341.5C 121.346,331.032 119.013,320.365 117.5,309.5 Z"/></g>
<g><path style="opacity:0.008" fill="#5f276c" d="M 296.5,342.5 C 297.497,341.287 298.497,341.454 299.5,343C 298.423,343.47 297.423,343.303 296.5,342.5 Z"/></g>
<g><path style="opacity:1" fill="#6e4287" d="M 124.5,341.5 C 124.833,341.5 125.167,341.5 125.5,341.5C 126.59,346.336 128.09,351.002 130,355.5C 130.801,358.367 130.634,361.034 129.5,363.5C 129.531,359.216 128.531,355.216 126.5,351.5C 125.833,348.167 125.167,344.833 124.5,341.5 Z"/></g>
<g><path style="opacity:0.976" fill="#453b74" d="M 213.5,374.5 C 214.5,374.5 215.5,374.5 216.5,374.5C 217.449,376.737 218.116,379.071 218.5,381.5C 216.6,379.381 214.934,377.047 213.5,374.5 Z"/></g>
<g><path style="opacity:0.976" fill="#915ea7" d="M 227.5,392.5 C 243.306,399.66 259.639,405.66 276.5,410.5C 281.419,411.798 286.419,412.965 291.5,414C 313.897,414.956 336.23,414.456 358.5,412.5C 361.206,412.575 363.873,412.908 366.5,413.5C 366.184,427.882 366.517,442.215 367.5,456.5C 321.492,457.555 281.159,443.055 246.5,413C 239.593,406.597 233.26,399.764 227.5,392.5 Z"/></g>
<g><path style="opacity:1" fill="#64397d" d="M 224.5,389.5 C 227.127,390.105 229.793,390.605 232.5,391C 234.362,392.756 236.362,394.256 238.5,395.5C 243.069,396.839 247.402,398.672 251.5,401C 261.785,405.037 272.451,407.537 283.5,408.5C 283.709,409.086 284.043,409.586 284.5,410C 296.057,410.214 307.557,411.048 319,412.5C 329.11,411.033 339.277,410.366 349.5,410.5C 351.099,410.232 352.432,410.566 353.5,411.5C 327.734,414.466 302.068,414.133 276.5,410.5C 259.639,405.66 243.306,399.66 227.5,392.5C 226.167,391.833 225.167,390.833 224.5,389.5 Z"/></g>
<g><path style="opacity:1" fill="#7e4e95" d="M 276.5,410.5 C 302.068,414.133 327.734,414.466 353.5,411.5C 355.415,411.216 357.081,411.549 358.5,412.5C 336.23,414.456 313.897,414.956 291.5,414C 286.419,412.965 281.419,411.798 276.5,410.5 Z"/></g>
<g><path style="opacity:0.004" fill="#00fffe" d="M 384.5,427.5 C 384.5,427.833 384.5,428.167 384.5,428.5C 383.83,428.019 383.83,427.685 384.5,427.5 Z"/></g>
<g><path style="opacity:0.004" fill="#00fffe" d="M 381.5,432.5 C 382.833,433.167 382.833,433.167 381.5,432.5 Z"/></g>
<g><path style="opacity:0.004" fill="#00fffe" d="M 378.5,438.5 C 379.833,439.167 379.833,439.167 378.5,438.5 Z"/></g>
</svg>
