<?xml version="1.0" encoding="UTF-8"?>
<!DOCTYPE svg PUBLIC "-//W3C//DTD SVG 1.1//EN" "http://www.w3.org/Graphics/SVG/1.1/DTD/svg11.dtd">
<svg xmlns="http://www.w3.org/2000/svg" version="1.1" width="256px" height="380px" style="shape-rendering:geometricPrecision; text-rendering:geometricPrecision; image-rendering:optimizeQuality; fill-rule:evenodd; clip-rule:evenodd" xmlns:xlink="http://www.w3.org/1999/xlink">
<g><path style="opacity:0.993" fill="#4e2768" d="M 227.5,113.5 C 216.5,113.5 205.5,113.5 194.5,113.5C 191.474,94.6696 187.807,76.0029 183.5,57.5C 183.586,56.5041 183.252,55.6708 182.5,55C 180.866,54.5065 179.199,54.3398 177.5,54.5C 176.713,52.8958 175.38,52.2291 173.5,52.5C 170.673,51.8916 168.007,50.8916 165.5,49.5C 165.5,48.5 165.5,47.5 165.5,46.5C 163.5,46.5 161.5,46.5 159.5,46.5C 159.167,46.5 158.833,46.5 158.5,46.5C 156.383,44.3455 153.716,43.3455 150.5,43.5C 139.748,40.2165 128.748,38.2165 117.5,37.5C 92.0545,37.6292 76.3878,49.9626 70.5,74.5C 69.1752,78.2762 68.5085,82.4428 68.5,87C 68.5085,91.5572 69.1752,95.7238 70.5,99.5C 71.9345,105.036 74.4345,110.036 78,114.5C 89.4883,126.327 102.655,135.827 117.5,143C 140.27,153.551 162.603,164.885 184.5,177C 204.699,187.862 221.865,202.362 236,220.5C 241.469,228.103 245.302,236.436 247.5,245.5C 247.5,251.167 247.5,256.833 247.5,262.5C 246.878,263.627 246.045,264.627 245,265.5C 243.686,269.906 242.186,274.24 240.5,278.5C 238.62,280.755 237.62,283.422 237.5,286.5C 234.545,287.455 232.545,289.455 231.5,292.5C 228.097,294.9 225.43,297.9 223.5,301.5C 217.269,305.995 211.269,310.661 205.5,315.5C 202.638,317.096 199.638,318.43 196.5,319.5C 191.99,322.106 187.324,324.106 182.5,325.5C 182.5,325.833 182.5,326.167 182.5,326.5C 179.609,327.403 176.609,327.736 173.5,327.5C 173.5,328.5 173.5,329.5 173.5,330.5C 171.833,330.5 170.167,330.5 168.5,330.5C 184.299,315.101 190.299,296.435 186.5,274.5C 186.923,272.219 186.256,270.552 184.5,269.5C 183.766,268.292 183.433,266.959 183.5,265.5C 183.715,263.821 183.048,262.821 181.5,262.5C 181.167,261.833 180.833,261.167 180.5,260.5C 179.833,258.167 179.167,255.833 178.5,253.5C 177.5,253.5 176.5,253.5 175.5,253.5C 173.529,251.192 171.529,248.858 169.5,246.5C 169.027,245.094 168.027,244.427 166.5,244.5C 162.81,241.801 159.143,239.135 155.5,236.5C 154.952,233.916 153.285,232.916 150.5,233.5C 150.167,233.5 149.833,233.5 149.5,233.5C 149.179,231.952 148.179,231.285 146.5,231.5C 145.508,231.672 144.842,231.338 144.5,230.5C 143.713,228.896 142.38,228.229 140.5,228.5C 140.167,228.5 139.833,228.5 139.5,228.5C 138.952,225.916 137.285,224.916 134.5,225.5C 134.586,224.504 134.252,223.671 133.5,223C 128.718,221.244 124.051,219.41 119.5,217.5C 119.5,216.5 119.5,215.5 119.5,214.5C 117.5,214.5 115.5,214.5 113.5,214.5C 86.1606,201.637 60.4939,186.137 36.5,168C 16.9617,150.241 7.62838,128.074 8.5,101.5C 8.12616,80.115 14.9595,61.4483 29,45.5C 48.586,23.5773 71.586,11.2439 98,8.5C 99.8316,7.14174 101.665,6.80841 103.5,7.5C 105.169,6.11026 106.836,5.77692 108.5,6.5C 113.929,6.11316 119.429,5.11316 125,3.5C 161.599,2.84495 197.432,7.84495 232.5,18.5C 231.46,50.2266 229.793,81.8932 227.5,113.5 Z"/></g>
<g><path style="opacity:1" fill="#674b81" d="M 150.5,43.5 C 153.716,43.3455 156.383,44.3455 158.5,46.5C 155.603,45.871 152.936,44.871 150.5,43.5 Z"/></g>
<g><path style="opacity:1" fill="#6c5487" d="M 159.5,46.5 C 161.5,46.5 163.5,46.5 165.5,46.5C 165.5,47.5 165.5,48.5 165.5,49.5C 163.25,48.8698 161.25,47.8698 159.5,46.5 Z"/></g>
<g><path style="opacity:0.514" fill="#626793" d="M 173.5,52.5 C 175.38,52.2291 176.713,52.8958 177.5,54.5C 175.847,54.3404 174.514,53.6737 173.5,52.5 Z"/></g>
<g><path style="opacity:0.976" fill="#545183" d="M 177.5,54.5 C 179.199,54.3398 180.866,54.5065 182.5,55C 183.252,55.6708 183.586,56.5041 183.5,57.5C 181.181,57.0075 179.181,56.0075 177.5,54.5 Z"/></g>
<g><path style="opacity:0.827" fill="#735487" d="M 70.5,74.5 C 70.3596,82.7454 70.3596,91.0787 70.5,99.5C 69.1752,95.7238 68.5085,91.5572 68.5,87C 68.5085,82.4428 69.1752,78.2762 70.5,74.5 Z"/></g>
<g><path style="opacity:0.117" fill="#c0b2c9" d="M 194.5,113.5 C 205.5,113.5 216.5,113.5 227.5,113.5C 227.5,114.833 227.5,116.167 227.5,117.5C 216.813,117.832 206.146,117.499 195.5,116.5C 194.873,115.583 194.539,114.583 194.5,113.5 Z"/></g>
<g><path style="opacity:1" fill="#613e78" d="M 113.5,214.5 C 115.5,214.5 117.5,214.5 119.5,214.5C 119.5,215.5 119.5,216.5 119.5,217.5C 117.181,217.008 115.181,216.008 113.5,214.5 Z"/></g>
<g><path style="opacity:0.949" fill="#6a4f83" d="M 119.5,217.5 C 124.051,219.41 128.718,221.244 133.5,223C 134.252,223.671 134.586,224.504 134.5,225.5C 129.016,223.593 124.016,220.927 119.5,217.5 Z"/></g>
<g><path style="opacity:0.231" fill="#77598a" d="M 134.5,225.5 C 137.285,224.916 138.952,225.916 139.5,228.5C 137.632,227.737 135.965,226.737 134.5,225.5 Z"/></g>
<g><path style="opacity:0.251" fill="#605788" d="M 140.5,228.5 C 142.38,228.229 143.713,228.896 144.5,230.5C 142.847,230.34 141.514,229.674 140.5,228.5 Z"/></g>
<g><path style="opacity:0.204" fill="#575a89" d="M 146.5,231.5 C 148.179,231.285 149.179,231.952 149.5,233.5C 148.29,233.068 147.29,232.401 146.5,231.5 Z"/></g>
<g><path style="opacity:0.161" fill="#62417a" d="M 150.5,233.5 C 153.285,232.916 154.952,233.916 155.5,236.5C 153.566,235.89 151.899,234.89 150.5,233.5 Z"/></g>
<g><path style="opacity:0.02" fill="#2bdcdc" d="M 7.5,242.5 C 7.89657,241.475 8.56323,241.308 9.5,242C 8.90558,242.464 8.23891,242.631 7.5,242.5 Z"/></g>
<g><path style="opacity:0.357" fill="#54477d" d="M 166.5,244.5 C 168.027,244.427 169.027,245.094 169.5,246.5C 167.973,246.573 166.973,245.906 166.5,244.5 Z"/></g>
<g><path style="opacity:0.993" fill="#915fa8" d="M 57.5,302.5 C 57.6888,307.963 58.3555,313.296 59.5,318.5C 63.8227,318.547 67.8227,319.547 71.5,321.5C 72.1834,323.176 73.5168,323.843 75.5,323.5C 75.8333,323.5 76.1667,323.5 76.5,323.5C 76.4142,324.496 76.7476,325.329 77.5,326C 79.1341,326.494 80.8008,326.66 82.5,326.5C 89.7761,328.703 97.1094,330.703 104.5,332.5C 106.279,334.344 108.612,335.01 111.5,334.5C 115.81,335.08 120.143,335.414 124.5,335.5C 127.337,337.402 130.671,338.069 134.5,337.5C 143.256,337.863 151.923,337.863 160.5,337.5C 164.425,335.124 168.758,333.957 173.5,334C 176.872,331.918 180.372,330.085 184,328.5C 184.333,328.833 184.667,329.167 185,329.5C 187.356,326.55 190.189,325.55 193.5,326.5C 195.325,325.349 197.325,324.682 199.5,324.5C 199.351,323.448 199.517,322.448 200,321.5C 202.883,319.83 205.383,317.83 207.5,315.5C 209.216,314.029 211.216,313.029 213.5,312.5C 214.552,312.649 215.552,312.483 216.5,312C 221.36,307.637 226.36,303.471 231.5,299.5C 232.314,297.234 232.814,294.9 233,292.5C 238.942,289.103 242.442,284.103 243.5,277.5C 245.72,273.953 246.72,269.953 246.5,265.5C 247.5,265.5 248.5,265.5 249.5,265.5C 249.5,264.5 249.5,263.5 249.5,262.5C 249.833,262.5 250.167,262.5 250.5,262.5C 250.178,268.358 250.511,274.025 251.5,279.5C 241.695,325.141 214.362,354.641 169.5,368C 127.288,378.028 85.9542,375.028 45.5,359C 33.9266,354.311 22.5932,349.144 11.5,343.5C 11.1788,341.952 10.1788,341.285 8.5,341.5C 7.54163,341.047 6.7083,340.381 6,339.5C 8.67868,311.521 11.512,280.188 14.5,245.5C 24.5,245.5 34.5,245.5 44.5,245.5C 48.9911,264.464 53.3244,283.464 57.5,302.5 Z"/></g>
<g><path style="opacity:1" fill="#5d3b76" d="M 247.5,245.5 C 249.258,248.854 250.258,252.521 250.5,256.5C 248.94,258.156 247.94,260.156 247.5,262.5C 247.5,256.833 247.5,251.167 247.5,245.5 Z"/></g>
<g><path style="opacity:0.682" fill="#60467d" d="M 175.5,253.5 C 176.5,253.5 177.5,253.5 178.5,253.5C 179.167,255.833 179.833,258.167 180.5,260.5C 178.6,258.381 176.934,256.047 175.5,253.5 Z"/></g>
<g><path style="opacity:0.745" fill="#8590bb" d="M 250.5,257.5 C 251.038,259.117 251.371,260.784 251.5,262.5C 251.167,262.5 250.833,262.5 250.5,262.5C 250.167,262.5 249.833,262.5 249.5,262.5C 249.216,260.585 249.549,258.919 250.5,257.5 Z"/></g>
<g><path style="opacity:0.271" fill="#514f81" d="M 181.5,262.5 C 183.048,262.821 183.715,263.821 183.5,265.5C 182.599,264.71 181.932,263.71 181.5,262.5 Z"/></g>
<g><path style="opacity:0.735" fill="#a880b9" d="M 250.5,262.5 C 250.833,262.5 251.167,262.5 251.5,262.5C 252.537,268.203 252.537,273.87 251.5,279.5C 250.511,274.025 250.178,268.358 250.5,262.5 Z"/></g>
<g><path style="opacity:1" fill="#76508e" d="M 250.5,256.5 C 250.5,256.833 250.5,257.167 250.5,257.5C 249.549,258.919 249.216,260.585 249.5,262.5C 249.5,263.5 249.5,264.5 249.5,265.5C 248.5,265.5 247.5,265.5 246.5,265.5C 246.72,269.953 245.72,273.953 243.5,277.5C 242.391,277.557 241.391,277.89 240.5,278.5C 242.186,274.24 243.686,269.906 245,265.5C 246.045,264.627 246.878,263.627 247.5,262.5C 247.94,260.156 248.94,258.156 250.5,256.5 Z"/></g>
<g><path style="opacity:0.992" fill="#56457c" d="M 184.5,269.5 C 186.256,270.552 186.923,272.219 186.5,274.5C 185.463,273.07 184.796,271.403 184.5,269.5 Z"/></g>
<g><path style="opacity:1" fill="#8a5f9f" d="M 243.5,277.5 C 242.442,284.103 238.942,289.103 233,292.5C 232.814,294.9 232.314,297.234 231.5,299.5C 226.36,303.471 221.36,307.637 216.5,312C 215.552,312.483 214.552,312.649 213.5,312.5C 213.5,311.5 213.5,310.5 213.5,309.5C 216.14,309.046 218.473,307.879 220.5,306C 222.141,304.871 223.141,303.371 223.5,301.5C 226.874,299.126 229.541,296.126 231.5,292.5C 232.545,289.455 234.545,287.455 237.5,286.5C 237.62,283.422 238.62,280.755 240.5,278.5C 241.391,277.89 242.391,277.557 243.5,277.5 Z"/></g>
<g><path style="opacity:1" fill="#694380" d="M 231.5,292.5 C 229.541,296.126 226.874,299.126 223.5,301.5C 225.43,297.9 228.097,294.9 231.5,292.5 Z"/></g>
<g><path style="opacity:1" fill="#734c89" d="M 223.5,301.5 C 223.141,303.371 222.141,304.871 220.5,306C 218.473,307.879 216.14,309.046 213.5,309.5C 213.5,310.5 213.5,311.5 213.5,312.5C 211.216,313.029 209.216,314.029 207.5,315.5C 206.833,315.5 206.167,315.5 205.5,315.5C 211.269,310.661 217.269,305.995 223.5,301.5 Z"/></g>
<g><path style="opacity:0.984" fill="#946cae" d="M 57.5,302.5 C 59.1016,306.239 60.1016,310.239 60.5,314.5C 60.5,315.5 60.5,316.5 60.5,317.5C 61.8333,317.5 63.1667,317.5 64.5,317.5C 67.0041,318.584 69.3374,319.917 71.5,321.5C 67.8227,319.547 63.8227,318.547 59.5,318.5C 58.3555,313.296 57.6888,307.963 57.5,302.5 Z"/></g>
<g><path style="opacity:0.871" fill="#8e82b8" d="M 60.5,314.5 C 62.1216,315.122 63.4549,316.122 64.5,317.5C 63.1667,317.5 61.8333,317.5 60.5,317.5C 60.5,316.5 60.5,315.5 60.5,314.5 Z"/></g>
<g><path style="opacity:0.878" fill="#857db5" d="M 71.5,321.5 C 73.153,321.66 74.4863,322.326 75.5,323.5C 73.5168,323.843 72.1834,323.176 71.5,321.5 Z"/></g>
<g><path style="opacity:1" fill="#6c4583" d="M 196.5,319.5 C 195.766,320.708 195.433,322.041 195.5,323.5C 191.369,324.901 187.036,325.567 182.5,325.5C 187.324,324.106 191.99,322.106 196.5,319.5 Z"/></g>
<g><path style="opacity:1" fill="#8d61a2" d="M 205.5,315.5 C 206.167,315.5 206.833,315.5 207.5,315.5C 205.383,317.83 202.883,319.83 200,321.5C 199.517,322.448 199.351,323.448 199.5,324.5C 197.325,324.682 195.325,325.349 193.5,326.5C 190.189,325.55 187.356,326.55 185,329.5C 184.667,329.167 184.333,328.833 184,328.5C 180.372,330.085 176.872,331.918 173.5,334C 168.758,333.957 164.425,335.124 160.5,337.5C 162.607,335.273 164.94,333.273 167.5,331.5C 169.833,331.5 172.167,331.5 174.5,331.5C 174.5,330.5 174.5,329.5 174.5,328.5C 177.698,329.036 180.365,328.369 182.5,326.5C 182.5,326.167 182.5,325.833 182.5,325.5C 187.036,325.567 191.369,324.901 195.5,323.5C 195.433,322.041 195.766,320.708 196.5,319.5C 199.638,318.43 202.638,317.096 205.5,315.5 Z"/></g>
<g><path style="opacity:0.349" fill="#8679b3" d="M 76.5,323.5 C 78.5739,324.514 80.5739,325.514 82.5,326.5C 80.8008,326.66 79.1341,326.494 77.5,326C 76.7476,325.329 76.4142,324.496 76.5,323.5 Z"/></g>
<g><path style="opacity:1" fill="#694280" d="M 182.5,326.5 C 180.365,328.369 177.698,329.036 174.5,328.5C 174.5,329.5 174.5,330.5 174.5,331.5C 172.167,331.5 169.833,331.5 167.5,331.5C 167.5,330.833 167.833,330.5 168.5,330.5C 170.167,330.5 171.833,330.5 173.5,330.5C 173.5,329.5 173.5,328.5 173.5,327.5C 176.609,327.736 179.609,327.403 182.5,326.5 Z"/></g>
<g><path style="opacity:0.365" fill="#7e81b6" d="M 104.5,332.5 C 107.01,332.927 109.343,333.593 111.5,334.5C 108.612,335.01 106.279,334.344 104.5,332.5 Z"/></g>
<g><path style="opacity:0.225" fill="#7a7db4" d="M 124.5,335.5 C 127.941,336.097 131.275,336.763 134.5,337.5C 130.671,338.069 127.337,337.402 124.5,335.5 Z"/></g>
<g><path style="opacity:0.698" fill="#8776b1" d="M 8.5,341.5 C 10.1788,341.285 11.1788,341.952 11.5,343.5C 10.2905,343.068 9.29049,342.401 8.5,341.5 Z"/></g>
</svg>
